<svg width="120" height="120" viewBox="0 0 120 120" fill="none" xmlns="http://www.w3.org/2000/svg">
<g clip-path="url(#clip0_109_2178)">
<path d="M14.6375 114.945H17.33V115.3H13.63V110.982C13.63 110.512 13.55 110.202 13.08 110.202H13V109.962H13.94C14.215 109.962 14.3875 110.03 14.5025 110.18C14.605 110.34 14.64 110.592 14.64 110.982V114.945H14.6375Z" fill="#F1E7D4"/>
<path d="M21.19 109.962L22.93 114.292C23.1125 114.75 23.3875 115.037 23.7425 115.072V115.267C23.65 115.29 23.48 115.312 23.365 115.312C23.1125 115.312 22.815 115.267 22.5525 115.13C22.2675 114.992 21.9675 114.752 21.83 114.295L21.6475 113.687H19.585L18.9425 115.302H18.53L20.8325 109.965H21.19V109.962ZM20.6525 111.302L19.7475 113.342H21.5125L20.6525 111.302Z" fill="#F1E7D4"/>
<path d="M30.6875 109.962V113.777C30.6875 114.257 30.7325 114.602 30.8125 114.842C30.8925 115.082 31.0425 115.22 31.26 115.267V115.462C30.125 115.462 29.68 114.957 29.68 113.777V111.027L27.9725 115.29H27.72L25.6225 110.867V115.29H25.2325V109.962H26.1825L28.0725 113.787L29.665 109.962H30.6875Z" fill="#F1E7D4"/>
<path d="M34.6975 115.243C34.2625 115.243 33.8275 115.15 33.495 114.99C33.1625 114.83 32.9325 114.59 32.9325 114.303V113.385H33.15C33.31 114.473 33.815 114.885 34.685 114.885C35.28 114.885 35.67 114.633 35.67 114.13C35.67 113.683 35.36 113.43 34.8675 113.123L33.905 112.55C33.195 112.138 32.9425 111.725 32.9425 111.153C32.9425 110.34 33.6175 109.823 34.685 109.823C35.1075 109.823 35.545 109.903 35.8875 110.063C36.22 110.223 36.45 110.463 36.45 110.76V111.665H36.2325C36.05 110.588 35.5575 110.175 34.765 110.175C34.2025 110.175 33.86 110.463 33.86 110.93C33.86 111.148 33.94 111.308 34.09 111.458C34.2275 111.608 34.4225 111.733 34.675 111.87L35.625 112.443C36.335 112.855 36.645 113.21 36.645 113.783C36.6425 114.683 35.945 115.243 34.6975 115.243Z" fill="#F1E7D4"/>
<path d="M40.79 109.962L42.53 114.292C42.7125 114.75 42.9875 115.037 43.3425 115.072V115.267C43.25 115.29 43.08 115.312 42.965 115.312C42.7125 115.312 42.415 115.267 42.1525 115.13C41.8675 114.992 41.5675 114.752 41.43 114.295L41.2475 113.687H39.185L38.5425 115.302H38.13L40.4325 109.965H40.79V109.962ZM40.2525 111.302L39.3475 113.342H41.1125L40.2525 111.302Z" fill="#F1E7D4"/>
<path d="M45.0525 109.962H48.7075V110.317H47.08V115.255H46.0725V110.317H45.51C44.96 110.317 44.6175 110.557 44.6175 111.245H44.3875V110.592C44.3875 110.432 44.4225 110.272 44.5125 110.157C44.6175 110.042 44.7775 109.962 45.0525 109.962Z" fill="#F1E7D4"/>
<path d="M56.0375 109.962L57.7775 114.292C57.96 114.75 58.235 115.037 58.59 115.072V115.267C58.4975 115.29 58.3275 115.312 58.2125 115.312C57.96 115.312 57.6625 115.267 57.4 115.13C57.115 114.992 56.815 114.752 56.6775 114.295L56.495 113.687H54.4325L53.79 115.302H53.3775L55.68 109.965H56.0375V109.962ZM55.5 111.302L54.595 113.342H56.36L55.5 111.302Z" fill="#F1E7D4"/>
<path d="M61.2625 114.945H63.955V115.3H60.255V110.982C60.255 110.512 60.175 110.202 59.705 110.202H59.625V109.962H60.565C60.84 109.962 61.0125 110.03 61.1275 110.18C61.23 110.34 61.265 110.592 61.265 110.982V114.945H61.2625Z" fill="#F1E7D4"/>
<path d="M65.8425 115.29V110.982C65.8425 110.512 65.7625 110.202 65.2925 110.202H65.2125V109.962H67.32C67.8125 109.962 68.385 109.997 68.8325 110.18C69.29 110.375 69.6125 110.707 69.6125 111.325C69.6125 111.542 69.5325 111.782 69.35 111.977C69.1675 112.182 68.9025 112.355 68.5375 112.447C69.0425 112.505 69.3725 112.652 69.58 112.882C69.7875 113.1 69.855 113.375 69.855 113.685C69.855 114.452 69.5575 114.82 69.1225 115.025C68.6875 115.23 68.1025 115.287 67.5525 115.287H65.8425V115.29ZM67.3225 110.272C67.1975 110.272 67.0825 110.285 66.99 110.307C66.9325 110.32 66.8875 110.32 66.8525 110.33V112.3H67.4375C68.0675 112.3 68.525 112.025 68.525 111.292C68.525 110.902 68.375 110.65 68.1575 110.49C67.9275 110.34 67.62 110.272 67.3225 110.272ZM67.4025 114.98H67.4375C68.2975 114.98 68.7675 114.59 68.7675 113.72C68.7675 112.997 68.32 112.642 67.4375 112.642H66.8525V114.9C66.8975 114.912 66.955 114.935 67.0125 114.935C67.1025 114.957 67.2425 114.98 67.4025 114.98Z" fill="#F1E7D4"/>
<path d="M73.9775 109.962L75.7175 114.292C75.9 114.75 76.175 115.037 76.53 115.072V115.267C76.4375 115.29 76.2675 115.312 76.1525 115.312C75.9 115.312 75.6025 115.267 75.34 115.13C75.055 114.992 74.755 114.752 74.6175 114.295L74.435 113.687H72.3725L71.73 115.302H71.3175L73.62 109.965H73.9775V109.962ZM73.44 111.302L72.535 113.342H74.3L73.44 111.302Z" fill="#F1E7D4"/>
<path d="M81.3075 112.265V109.962H82.315V114.282C82.315 114.74 82.395 115.062 82.865 115.062H82.9325V115.292H82.005C81.73 115.292 81.5575 115.235 81.455 115.087C81.34 114.927 81.305 114.675 81.305 114.285V112.612H79.1975V115.292H78.19V110.985C78.19 110.515 78.11 110.205 77.64 110.205H77.56V109.965H78.5C78.775 109.965 78.9475 110.032 79.0625 110.182C79.165 110.342 79.2 110.595 79.2 110.985V112.267H81.3075V112.265Z" fill="#F1E7D4"/>
<path d="M86.9225 109.962L88.6625 114.292C88.845 114.75 89.12 115.037 89.475 115.072V115.267C89.3825 115.29 89.2125 115.312 89.0975 115.312C88.845 115.312 88.5475 115.267 88.285 115.13C88 114.992 87.7 114.752 87.5625 114.295L87.38 113.687H85.3175L84.675 115.302H84.2625L86.565 109.965H86.9225V109.962ZM86.3825 111.302L85.4775 113.342H87.2425L86.3825 111.302Z" fill="#F1E7D4"/>
<path d="M93.245 114.167L92.465 112.757H92.155V115.3H91.135V110.982C91.135 110.512 91.055 110.202 90.585 110.202H90.505V109.962H92.6575C92.91 109.962 93.22 109.985 93.5275 110.055C93.8375 110.122 94.1475 110.25 94.375 110.455C94.605 110.672 94.7525 110.97 94.7525 111.395C94.7525 111.807 94.5925 112.095 94.3525 112.3C94.1 112.495 93.78 112.62 93.4925 112.69L94.3175 114.167C94.5 114.5 94.695 114.705 94.855 114.832C95.0275 114.957 95.165 115.005 95.28 115.027V115.222C95.2 115.257 94.9475 115.302 94.7525 115.302C94.4775 115.302 94.225 115.235 93.985 115.062C93.7375 114.877 93.485 114.602 93.245 114.167ZM92.66 110.272C92.535 110.272 92.3975 110.285 92.305 110.307C92.26 110.32 92.2025 110.32 92.1575 110.33V112.437H92.615C92.8675 112.437 93.13 112.37 93.3375 112.207C93.5425 112.047 93.67 111.76 93.67 111.36C93.67 110.96 93.5325 110.685 93.3375 110.512C93.1425 110.34 92.89 110.272 92.66 110.272Z" fill="#F1E7D4"/>
<path d="M99.0525 109.962L100.793 114.292C100.975 114.75 101.25 115.037 101.605 115.072V115.267C101.513 115.29 101.343 115.312 101.228 115.312C100.975 115.312 100.678 115.267 100.415 115.13C100.13 114.992 99.83 114.752 99.6925 114.295L99.51 113.687H97.4475L96.805 115.302H96.3925L98.695 109.965H99.0525V109.962ZM98.515 111.302L97.61 113.342H99.375L98.515 111.302Z" fill="#F1E7D4"/>
<path d="M103.315 109.962H106.97V110.317H105.343V115.255H104.335V110.317H103.773C103.223 110.317 102.88 110.557 102.88 111.245H102.65V110.592C102.65 110.432 102.685 110.272 102.775 110.157C102.88 110.042 103.04 109.962 103.315 109.962Z" fill="#F1E7D4"/>
<path d="M19.9175 95.5925C19.9975 95.6725 20.1025 95.7425 20.2325 95.8025C20.3625 95.8625 20.4975 95.8925 20.6375 95.8925C20.7775 95.8925 20.9075 95.8625 21.0275 95.8025C21.1475 95.7425 21.2575 95.6725 21.3575 95.5925C21.4575 95.5125 21.5375 95.4025 21.5975 95.2625C21.6575 95.1225 21.6875 94.9875 21.6875 94.8575C21.6875 94.7275 21.6575 94.5975 21.5975 94.4675C21.5375 94.3375 21.4575 94.2275 21.3575 94.1375C21.2575 94.0475 21.1475 93.9725 21.0275 93.9125C20.9075 93.8525 20.7775 93.8225 20.6375 93.8225C20.4975 93.8225 20.3625 93.8525 20.2325 93.9125C20.1025 93.9725 19.9975 94.0475 19.9175 94.1375C19.8375 94.2275 19.7675 94.3375 19.7075 94.4675C19.6475 94.5975 19.6175 94.7325 19.6175 94.8725C19.6175 94.9925 19.6475 95.1225 19.7075 95.2625C19.7675 95.4025 19.8375 95.5125 19.9175 95.5925Z" fill="#F1E7D4"/>
<path d="M17.33 95.5925C17.42 95.6725 17.53 95.7425 17.66 95.8025C17.79 95.8625 17.925 95.8925 18.065 95.8925C18.185 95.8925 18.31 95.8625 18.44 95.8025C18.57 95.7425 18.68 95.6725 18.77 95.5925C18.86 95.5125 18.94 95.4025 19.01 95.2625C19.08 95.1225 19.115 94.9875 19.115 94.8575C19.115 94.7275 19.08 94.5975 19.01 94.4675C18.94 94.3375 18.86 94.2275 18.77 94.1375C18.68 94.0475 18.57 93.9725 18.44 93.9125C18.31 93.8525 18.18 93.8225 18.05 93.8225C17.92 93.8225 17.79 93.8525 17.66 93.9125C17.53 93.9725 17.42 94.0475 17.33 94.1375C17.24 94.2275 17.165 94.3375 17.105 94.4675C17.045 94.5975 17.015 94.7275 17.015 94.8575C17.015 94.9875 17.045 95.1225 17.105 95.2625C17.165 95.4025 17.24 95.5125 17.33 95.5925Z" fill="#F1E7D4"/>
<path d="M54.315 105.54C54.235 105.45 54.125 105.375 53.985 105.315C53.845 105.255 53.715 105.225 53.595 105.225C53.455 105.225 53.315 105.255 53.175 105.315C53.035 105.375 52.92 105.45 52.83 105.54C52.74 105.63 52.67 105.74 52.62 105.87C52.57 106 52.545 106.125 52.545 106.245C52.545 106.385 52.57 106.52 52.62 106.65C52.67 106.78 52.74 106.89 52.83 106.98C52.92 107.07 53.035 107.14 53.175 107.19C53.315 107.24 53.455 107.265 53.595 107.265C53.715 107.265 53.845 107.24 53.985 107.19C54.125 107.14 54.235 107.07 54.315 106.98C54.395 106.89 54.465 106.78 54.525 106.65C54.585 106.52 54.615 106.385 54.615 106.245C54.615 106.125 54.585 106 54.525 105.87C54.465 105.74 54.395 105.63 54.315 105.54Z" fill="#F1E7D4"/>
<path d="M74.415 95.1726C74.505 95.2726 74.61 95.3476 74.73 95.3976C74.85 95.4476 74.98 95.4726 75.12 95.4726C75.28 95.4726 75.42 95.4476 75.54 95.3976C75.66 95.3476 75.765 95.2726 75.855 95.1726C75.945 95.0726 76.02 94.9676 76.08 94.8576C76.14 94.7476 76.17 94.6226 76.17 94.4826C76.17 94.3226 76.14 94.1776 76.08 94.0501C76.02 93.9201 75.945 93.8151 75.855 93.7351C75.765 93.6551 75.66 93.5851 75.54 93.5251C75.42 93.4651 75.285 93.4351 75.135 93.4351C74.985 93.4351 74.85 93.4651 74.73 93.5251C74.61 93.5851 74.505 93.6551 74.415 93.7351C74.325 93.8151 74.25 93.9201 74.19 94.0501C74.13 94.1801 74.1 94.3251 74.1 94.4826C74.1 94.6226 74.13 94.7476 74.19 94.8576C74.25 94.9701 74.325 95.0751 74.415 95.1726Z" fill="#F1E7D4"/>
<path d="M71.8275 95.1726C71.9075 95.2726 72.0175 95.3476 72.1575 95.3976C72.2975 95.4476 72.4275 95.4726 72.5475 95.4726C72.7075 95.4726 72.8425 95.4476 72.9525 95.3976C73.0625 95.3476 73.1675 95.2726 73.2675 95.1726C73.3675 95.0726 73.4425 94.9676 73.4925 94.8576C73.5425 94.7476 73.5675 94.6226 73.5675 94.4826C73.5675 94.3226 73.5425 94.1776 73.4925 94.0501C73.4425 93.9201 73.3675 93.8151 73.2675 93.7351C73.1675 93.6551 73.0625 93.5851 72.9525 93.5251C72.8425 93.4651 72.7175 93.4351 72.5775 93.4351C72.4375 93.4351 72.2975 93.4651 72.1575 93.5251C72.0175 93.5851 71.9075 93.6551 71.8275 93.7351C71.7475 93.8151 71.6725 93.9201 71.6025 94.0501C71.5325 94.1801 71.4975 94.3251 71.4975 94.4826C71.4975 94.6226 71.5325 94.7476 71.6025 94.8576C71.6725 94.9701 71.7475 95.0751 71.8275 95.1726Z" fill="#F1E7D4"/>
<path d="M104.415 93.585L104.35 93.5575L104.17 93.4875V102.893H102.793H102.313H101.805C101.525 102.893 101.268 102.843 101.028 102.743C100.788 102.643 100.568 102.503 100.37 102.323C100.61 101.885 100.73 101.385 100.73 100.828C100.73 100.35 100.64 99.915 100.46 99.525C100.28 99.135 100.04 98.8175 99.7425 98.5675C99.4425 98.3175 99.095 98.13 98.695 98C98.295 97.87 97.8575 97.805 97.3775 97.805C96.8775 97.805 96.44 97.865 96.06 97.985C95.68 98.105 95.3525 98.285 95.0725 98.5225C94.7925 98.7625 94.5825 99.065 94.445 99.435C94.305 99.805 94.235 100.238 94.235 100.738V102.893H92.5H92.11H91.5125C91.2125 102.893 90.92 102.823 90.63 102.683C90.34 102.543 90.1075 102.373 89.9275 102.175V101.653L89.9325 101.648V100.538V100.118C89.88 98.9425 90.77 98.92 90.77 98.92L88.5325 97.96L88.4675 97.9325L88.2875 97.8625V102.883L88.2825 102.89H87.295C87.015 102.89 86.7325 102.82 86.4425 102.68C86.1525 102.54 85.9075 102.37 85.71 102.173V100.093C85.6825 98.9625 86.5475 98.94 86.5475 98.94L84.31 97.98L84.245 97.9525L84.065 97.8825V102.635L84.0675 102.633L84.065 102.893H83.0775C82.7775 102.893 82.49 102.823 82.21 102.683C81.93 102.543 81.7 102.373 81.5225 102.175V99.775C81.6475 98.96 82.3425 98.94 82.3425 98.94L80.105 97.98L80.04 97.9525L79.86 97.8825V102.55L79.8775 102.54V102.893H78.62H78.11H77.0325V100.47C77.0325 99.9525 76.9525 99.4925 76.7925 99.0925C76.6325 98.6925 76.4125 98.36 76.135 98.09C75.855 97.82 75.5225 97.6125 75.1325 97.4625C74.7425 97.3125 74.3 97.2375 73.8 97.2375C73.34 97.2375 72.9125 97.3075 72.5125 97.4475C72.1125 97.5875 71.77 97.7975 71.48 98.075C71.19 98.355 70.9525 98.7025 70.7625 99.1225C70.5725 99.5425 70.4775 100.01 70.4775 100.528C70.4775 101.048 70.5625 101.505 70.7325 101.905C70.9025 102.305 71.1375 102.648 71.435 102.938C71.735 103.228 72.0825 103.438 72.4825 103.565C72.8825 103.695 73.32 103.76 73.8 103.76H78.1075H78.6175H81.52V102.623C81.6 102.803 81.695 102.958 81.805 103.085C81.915 103.215 82.04 103.33 82.1775 103.43C82.3175 103.53 82.4625 103.61 82.6125 103.67C82.7625 103.73 82.9175 103.76 83.075 103.76H85.7075V102.623C85.8075 102.803 85.9125 102.958 86.0225 103.085C86.1325 103.215 86.2525 103.33 86.3825 103.43C86.5125 103.53 86.6525 103.61 86.8025 103.67C86.9525 103.73 87.1175 103.76 87.295 103.76H89.9275V102.623C90.0275 102.803 90.1375 102.958 90.2575 103.085C90.3775 103.215 90.4975 103.33 90.6175 103.43C90.7375 103.53 90.8725 103.61 91.0225 103.67C91.1725 103.73 91.3375 103.76 91.515 103.76H92.1125H92.5025H95.8825V102.623C95.9425 102.763 96.0225 102.903 96.1225 103.043C96.2225 103.183 96.3575 103.308 96.5275 103.418C96.6975 103.528 96.905 103.613 97.155 103.673C97.405 103.733 97.6775 103.763 97.9775 103.763C98.475 103.763 98.915 103.663 99.295 103.463C99.6725 103.263 99.9725 102.985 100.193 102.625C100.293 102.805 100.398 102.96 100.508 103.088C100.618 103.218 100.738 103.333 100.868 103.433C100.998 103.533 101.143 103.613 101.303 103.673C101.463 103.733 101.633 103.763 101.81 103.763H102.318H102.798H105.82V96.1625V95.7425C105.768 94.5675 106.658 94.545 106.658 94.545L104.415 93.585ZM75.3575 102.893H73.8925C73.5725 102.893 73.3 102.823 73.07 102.683C72.84 102.543 72.665 102.363 72.5475 102.145C72.4275 101.925 72.3325 101.668 72.2625 101.368C72.1925 101.068 72.1575 100.75 72.1575 100.41C72.1575 100.11 72.1925 99.7975 72.2625 99.4675C72.3325 99.1375 72.4225 98.845 72.5325 98.585C72.6425 98.325 72.8075 98.1175 73.025 97.9575C73.245 97.7975 73.4925 97.7175 73.7725 97.7175C74.15 97.7175 74.435 97.8125 74.625 98.0025C74.815 98.1925 74.965 98.4225 75.075 98.69C75.185 98.96 75.26 99.2625 75.3 99.6025C75.34 99.9425 75.36 100.27 75.36 100.59V102.893H75.3575ZM98.935 101.59C98.875 101.86 98.79 102.09 98.68 102.278C98.57 102.468 98.415 102.618 98.2175 102.728C98.0175 102.838 97.7975 102.893 97.56 102.893C97.22 102.893 96.9475 102.848 96.7375 102.758C96.5275 102.668 96.3525 102.558 96.2125 102.428C96.0725 102.298 95.9825 102.163 95.9425 102.023C95.9025 101.883 95.8825 101.783 95.8825 101.723V100.855C95.8825 100.555 95.8975 100.253 95.9275 99.9425C95.9575 99.6325 96.0225 99.36 96.1225 99.12C96.2225 98.88 96.3725 98.6875 96.57 98.5375C96.77 98.3875 97.0375 98.3125 97.3775 98.3125C97.7175 98.3125 97.99 98.3775 98.2 98.5075C98.41 98.6375 98.575 98.8075 98.6925 99.015C98.8125 99.225 98.8975 99.475 98.9475 99.7625C98.9975 100.053 99.0225 100.375 99.0225 100.735C99.025 101.038 98.995 101.323 98.935 101.59Z" fill="#F1E7D4"/>
<path d="M54.065 97.8102L53.885 97.7402V102.408L53.895 102.403V102.895H51.3525H50.9925H50.335C50.055 102.895 49.7775 102.825 49.4975 102.685C49.2175 102.545 48.9775 102.375 48.78 102.178V100.473C48.78 99.9152 48.69 99.4352 48.51 99.0377C48.33 98.6377 48.07 98.2952 47.7325 98.0052C47.3925 97.7152 46.99 97.5177 46.52 97.4077C46.05 97.2977 45.5675 97.2427 45.07 97.2427H43.095V97.6927H45.07C45.4475 97.6927 45.7675 97.7827 46.0275 97.9627C46.2875 98.1427 46.495 98.3777 46.655 98.6652C46.815 98.9552 46.935 99.2677 47.015 99.6077C47.095 99.9477 47.135 100.275 47.135 100.595V102.9H45.7V101.345C45.7 100.945 45.65 100.588 45.55 100.268C45.45 99.9502 45.295 99.6752 45.0875 99.4452C44.8775 99.2152 44.6075 99.0377 44.28 98.9077C43.95 98.7777 43.5475 98.7127 43.0675 98.7127C42.5875 98.7127 42.175 98.7927 41.825 98.9527C41.475 99.1127 41.1875 99.3227 40.9575 99.5802C40.7275 99.8402 40.5625 100.13 40.465 100.448C40.365 100.768 40.355 101.085 40.435 101.405C40.515 102.063 40.735 102.563 41.0925 102.9H39.4475H39.0275H37.2925L37.2575 102.745V96.1677V95.7477C37.205 94.5727 38.095 94.5502 38.095 94.5502L35.8575 93.5902L35.7925 93.5627L35.6125 93.4927V97.4377V102.9L35.6175 102.903V103.768H37.2925H39.0275H39.4475H48.7825V102.63C48.9225 102.81 49.0375 102.965 49.1275 103.093C49.2175 103.223 49.3325 103.338 49.4725 103.438C49.6125 103.538 49.7525 103.618 49.8925 103.678C50.0325 103.738 50.1825 103.768 50.3425 103.768H51H51.36H55.5475V99.9677L55.5375 99.9627C55.5075 98.8277 56.375 98.8052 56.375 98.8052L54.1375 97.8452L54.065 97.8102ZM44.0525 101.038V101.338V102.893C43.7925 102.853 43.5525 102.818 43.335 102.788C43.115 102.758 42.925 102.683 42.7675 102.563C42.6075 102.443 42.4625 102.278 42.3325 102.07C42.2025 101.86 42.1175 101.608 42.0775 101.308C42.0375 101.088 42.0325 100.858 42.0625 100.62C42.0925 100.383 42.1475 100.163 42.2275 99.9627C42.3075 99.7627 42.4275 99.5852 42.5875 99.4252C42.7475 99.2652 42.9275 99.1852 43.125 99.1852C43.325 99.1852 43.48 99.2352 43.5875 99.3352C43.6975 99.4352 43.7825 99.5452 43.8425 99.6652C43.9025 99.7852 43.9525 99.9302 43.9925 100.1C44.0325 100.27 44.0525 100.435 44.0525 100.593V101.038Z" fill="#F1E7D4"/>
<path d="M31.4525 99.1176L31.2725 99.0476V103.705C31.27 103.878 31.2675 104.043 31.2625 104.195C31.2525 104.525 31.2275 104.818 31.1875 105.078C31.1475 105.338 31.0975 105.57 31.0375 105.78C30.9775 105.99 30.8725 106.188 30.7225 106.378C30.5725 106.568 30.3975 106.738 30.2 106.885C30 107.035 29.75 107.18 29.4525 107.32L29.5125 107.56C30.09 107.36 30.6 107.16 31.0375 106.963C31.475 106.763 31.84 106.503 32.13 106.185C32.42 105.865 32.6225 105.498 32.7425 105.078C32.8625 104.658 32.9225 104.15 32.9225 103.553V101.458C32.9225 101.448 32.92 101.438 32.9175 101.425V101.3C32.865 100.125 33.755 100.103 33.755 100.103L31.5175 99.1426L31.4525 99.1176Z" fill="#F1E7D4"/>
<path d="M27.1875 93.5575L27.0075 93.4875V95.4725V97.43V102.893V103.76H28.6825L28.6525 103.61V96.16V95.74C28.6 94.565 29.49 94.5425 29.49 94.5425L27.2525 93.5825L27.1875 93.5575Z" fill="#F1E7D4"/>
<path d="M23.1025 97.8102L22.9225 97.7402V102.7L22.91 102.728V102.895H17.7025C17.3825 102.895 17.065 102.875 16.745 102.835C16.425 102.795 16.1425 102.71 15.8925 102.58C15.6425 102.45 15.4375 102.24 15.28 101.953C15.12 101.663 15.04 101.29 15.04 100.83C15.04 100.67 15.06 100.505 15.1 100.338C15.14 100.168 15.18 99.9827 15.22 99.7852C15.26 99.5852 15.315 99.4102 15.385 99.2627C15.455 99.1127 15.53 98.9777 15.61 98.8577L15.37 98.6777L14.8025 99.1552C14.5625 99.3552 14.3425 99.5802 14.145 99.8277C13.945 100.078 13.78 100.35 13.6525 100.65C13.5225 100.95 13.4575 101.258 13.4575 101.578C13.4575 101.918 13.5225 102.205 13.6525 102.445C13.7825 102.685 13.9425 102.885 14.13 103.043C14.32 103.203 14.5425 103.333 14.8025 103.433C15.0625 103.533 15.33 103.608 15.61 103.658C15.89 103.708 16.1625 103.738 16.4325 103.748C16.7025 103.758 16.935 103.763 17.135 103.763H24.585V99.9627V99.6477C24.705 98.8202 25.405 98.8002 25.405 98.8002L23.1675 97.8402L23.1025 97.8102Z" fill="#F1E7D4"/>
<path d="M55.35 102.623C55.45 102.803 55.555 102.958 55.665 103.085C55.775 103.215 55.895 103.33 56.025 103.43C56.155 103.53 56.3 103.61 56.46 103.67C56.62 103.73 56.79 103.76 56.9675 103.76H57.475H57.955H60.9775V96.1601V95.7401C60.925 94.5651 61.815 94.5426 61.815 94.5426L59.5775 93.5826L59.5125 93.5551L59.3325 93.4851V102.89H57.955H57.475H56.9675C56.6875 102.89 56.43 102.84 56.19 102.74C55.95 102.64 55.73 102.5 55.5325 102.32" fill="#F1E7D4"/>
<path d="M27.1875 93.5575L27.0075 93.4875V95.4725V97.43V102.893V103.76H28.6825L28.6525 103.61V96.16V95.74C28.6 94.565 29.49 94.5425 29.49 94.5425L27.2525 93.5825L27.1875 93.5575Z" fill="#F1E7D4"/>
<path d="M63.4575 93.5575L63.2775 93.4875V95.4725V97.43V102.893V103.76H64.9525L64.9225 103.61V96.16V95.74C64.87 94.565 65.76 94.5425 65.76 94.5425L63.5225 93.5825L63.4575 93.5575Z" fill="#F1E7D4"/>
<path d="M60.8175 48.1974L59.8525 46.3074C59.17 44.0449 60.5375 42.6074 60.5975 42.5474L60.8325 42.3049L61.0425 42.5699C62.405 44.2924 61.79 46.1699 61.765 46.2499L61.75 46.2849L60.8175 48.1974ZM60.415 46.1099L60.805 46.8699L61.21 46.0424C61.2625 45.8749 61.63 44.5574 60.8025 43.2499C60.4875 43.7174 60.0075 44.7274 60.415 46.1099Z" fill="#F1E7D4"/>
<path d="M60.755 53.4198L60.545 53.1548C59.1825 51.4323 59.7975 49.5548 59.8225 49.4748L59.8375 49.4398L60.77 47.5273L61.735 49.4173C62.4175 51.6798 61.05 53.1173 60.99 53.1773L60.755 53.4198ZM60.3825 49.6823C60.33 49.8498 59.9625 51.1673 60.79 52.4748C61.1025 52.0073 61.5825 50.9973 61.175 49.6148L60.785 48.8548L60.3825 49.6823Z" fill="#F1E7D4"/>
<path d="M63.55 48.9949C62.9 48.9949 62.4475 48.8474 62.4075 48.8324L62.3725 48.8174L60.46 47.8849L62.35 46.9199C64.6125 46.2374 66.05 47.6049 66.11 47.6649L66.3525 47.8999L66.0875 48.1099C65.1925 48.8199 64.255 48.9949 63.55 48.9949ZM62.615 48.2749C62.7825 48.3274 64.1 48.6949 65.4075 47.8674C64.94 47.5549 63.93 47.0749 62.5475 47.4824L61.7875 47.8724L62.615 48.2749Z" fill="#F1E7D4"/>
<path d="M57.9925 48.9949C56.46 48.9949 55.5275 48.1075 55.48 48.06L55.2375 47.825L55.5025 47.615C57.225 46.25 59.1025 46.8675 59.1825 46.8925L59.2175 46.9075L61.13 47.8399L59.24 48.8049C58.79 48.94 58.3725 48.9949 57.9925 48.9949ZM56.1825 47.8574C56.65 48.1699 57.66 48.6499 59.0425 48.2424L59.8025 47.8525L58.975 47.4474C58.8075 47.3974 57.49 47.0299 56.1825 47.8574Z" fill="#F1E7D4"/>
<path d="M64.6975 51.8201L64.3625 51.7801C62.18 51.5251 61.2875 49.7626 61.25 49.6876L61.235 49.6526L60.5425 47.6401L62.56 48.2951C64.6425 49.4126 64.69 51.3951 64.6925 51.4801L64.6975 51.8201ZM61.79 49.4426C61.8725 49.5976 62.5425 50.7901 64.0525 51.1276C63.9425 50.5751 63.5675 49.5226 62.3025 48.8326L61.49 48.5701L61.79 49.4426Z" fill="#F1E7D4"/>
<path d="M61.0475 48.0825L59.03 47.4275C56.9475 46.31 56.9 44.3275 56.8975 44.2425L56.8925 43.905L57.2275 43.945C59.41 44.2 60.3025 45.9625 60.34 46.0375L60.355 46.0725L61.0475 48.0825ZM59.285 46.8925L60.0975 47.155L59.7975 46.285C59.715 46.13 59.045 44.9375 57.535 44.6C57.6475 45.15 58.02 46.2025 59.285 46.8925Z" fill="#F1E7D4"/>
<path d="M56.8375 51.7649L56.8775 51.4299C57.1325 49.2474 58.895 48.3549 58.97 48.3174L59.005 48.3024L61.0175 47.6099L60.3625 49.6274C59.245 51.7099 57.2625 51.7574 57.1775 51.7599L56.8375 51.7649ZM59.215 48.8574C59.06 48.9399 57.8675 49.6099 57.53 51.1199C58.0825 51.0099 59.135 50.6349 59.825 49.3699L60.0875 48.5574L59.215 48.8574Z" fill="#F1E7D4"/>
<path d="M60.575 48.115L61.23 46.0975C62.3475 44.015 64.33 43.9675 64.415 43.965L64.7525 43.96L64.7125 44.295C64.46 46.4775 62.695 47.37 62.62 47.4075L62.585 47.4225L60.575 48.115ZM61.765 46.355L61.5025 47.1675L62.3725 46.8675C62.5275 46.785 63.72 46.115 64.0575 44.605C63.5075 44.715 62.455 45.0875 61.765 46.355Z" fill="#F1E7D4"/>
<path d="M67.245 71.6976C67.18 71.6326 67.1425 71.5425 67.1475 71.445C67.16 71.245 67.4775 66.5225 70.725 64.125C71.145 63.815 72.0725 63.53 72.82 63.8625C73.235 64.0475 73.7525 64.495 73.855 65.57C73.895 65.9925 73.9775 66.8701 73.415 67.3801C73.035 67.7226 72.4475 67.82 71.6675 67.6675C71.2875 67.5925 70.83 67.2901 70.725 66.8026C70.65 66.4401 70.7475 65.8751 71.655 65.2476C71.805 65.1451 72.0075 65.1801 72.1125 65.3301C72.215 65.4801 72.18 65.685 72.03 65.7875C71.56 66.1125 71.32 66.435 71.37 66.6675C71.4075 66.845 71.62 66.9901 71.795 67.0251C72.36 67.1351 72.7575 67.0926 72.975 66.8951C73.2925 66.6076 73.23 65.95 73.2 65.635C73.1425 65.025 72.925 64.6325 72.5525 64.4675C72.035 64.235 71.36 64.4776 71.1175 64.6576C68.12 66.8701 67.8075 71.4401 67.805 71.4876C67.795 71.6676 67.6375 71.8075 67.4575 71.795C67.375 71.7875 67.3 71.7526 67.245 71.6976Z" fill="#F1E7D4"/>
<path d="M48.065 65.0425C47.6525 64.865 47.2125 64.63 46.7475 64.3225C44.6575 62.9525 44.2125 61.5225 44.205 60.565C44.195 59.175 45.0725 57.955 45.945 57.365C46.575 56.9375 47.335 56.535 48.2075 56.7775C48.5875 56.8825 49.855 57.3125 50.205 58.4025C50.45 59.1675 50.1825 60.0375 49.4075 60.995C48.6875 61.8875 47.905 61.8325 47.5025 61.7225C46.725 61.5075 46.1025 60.7675 46.0275 60.2375C45.96 59.7625 46.1975 58.8225 46.805 58.365C47.09 58.15 47.57 57.955 48.2425 58.245C48.2475 58.2475 48.2525 58.25 48.2575 58.2525C49.055 58.6025 49.1125 59.1725 49.0775 59.48C49.01 60.04 48.54 60.545 48.18 60.61C48.025 60.6375 47.88 60.535 47.8525 60.38C47.825 60.225 47.9275 60.08 48.0825 60.0525C48.18 60.03 48.4825 59.745 48.5175 59.4C48.5275 59.3025 48.555 59.005 48.0325 58.775C47.6825 58.6175 47.3925 58.635 47.1475 58.82C46.7275 59.1375 46.5475 59.87 46.59 60.1625C46.6275 60.4275 47.06 61.015 47.655 61.18C48.1325 61.3125 48.5725 61.13 48.9675 60.6425C49.6125 59.845 49.8475 59.15 49.665 58.58C49.4025 57.7625 48.3675 57.415 48.055 57.33C47.4425 57.16 46.895 57.41 46.2625 57.84C45.5375 58.33 44.7625 59.3925 44.7725 60.5675C44.78 61.76 45.55 62.865 47.06 63.855C50.795 66.305 52.435 63.9075 52.5025 63.8025L52.5175 63.7825C52.53 63.7675 53.665 62.3075 53.45 61.2225C53.38 60.87 53.1725 60.6 52.8125 60.3975C52.2275 60.0675 51.7325 60.005 51.345 60.2075C50.825 60.4825 50.5775 61.1925 50.5425 61.575C50.515 61.88 50.7725 62.205 51.1375 62.3275C51.3125 62.3875 51.755 62.4725 52.0575 61.9925C52.22 61.735 52.275 61.515 52.215 61.3425C52.1325 61.0975 51.8425 60.98 51.84 60.98C51.6925 60.925 51.6175 60.7625 51.6725 60.615C51.7275 60.4675 51.89 60.3925 52.0375 60.4475C52.0925 60.4675 52.585 60.6625 52.7525 61.16C52.8675 61.505 52.795 61.885 52.5375 62.295C52.1825 62.855 51.5775 63.0725 50.9575 62.8625C50.34 62.6525 49.93 62.0925 49.9775 61.525C50.0175 61.0775 50.2975 60.1175 51.08 59.705C51.6475 59.405 52.325 59.4725 53.0875 59.9C53.5925 60.185 53.9 60.59 54.0025 61.11C54.2625 62.4275 53.06 64 52.9625 64.125C52.825 64.32 51.235 66.4075 48.065 65.0425Z" fill="#F1E7D4"/>
<path d="M52.69 72.1675L52.9525 72.2175C52.9525 72.2175 53.2725 69.4175 55.025 69.655C55.025 69.655 55.785 69.83 56.04 70.1C56.295 70.37 56.3925 69.83 56.3925 69.83C56.3925 69.83 55.8575 68.4625 53.57 68.6C53.57 68.6 52.955 66.555 50.5875 67.25C50.5875 67.25 50.45 67.3275 50.635 67.495C50.8225 67.66 53.0025 68.1025 52.69 72.1675Z" fill="#F1E7D4"/>
<path d="M70.1575 61.2301C73.8575 57.8126 75.93 58.7126 75.9475 58.7201L75.96 58.7251C75.9675 58.7276 76.67 59.0501 76.8825 59.7201C77.025 60.1701 76.9225 60.6901 76.575 61.2726C76.4075 61.5551 75.7575 62.0376 75.3125 61.9476C74.935 61.8726 74.7825 61.3601 74.7225 60.9426C74.6975 60.7801 75.0225 60.3176 75.355 60.2601C75.535 60.2301 75.655 60.0601 75.6225 59.8801C75.5925 59.7001 75.4225 59.5801 75.2425 59.6126C74.6125 59.7201 73.99 60.4801 74.07 61.0376C74.2375 62.1726 74.7675 62.5101 75.1825 62.5926C76 62.7551 76.8775 62.0476 77.1375 61.6076C77.585 60.8551 77.7075 60.1501 77.5025 59.5126C77.205 58.5851 76.315 58.1626 76.225 58.1226C76.0475 58.0401 73.7025 57.0501 69.705 60.7426C66.3275 63.8626 65.5375 70.5876 65.36 72.9576C65.36 73.3426 65.9475 73.5101 66.035 72.8251C66.275 70.2476 67.145 64.0151 70.1575 61.2301Z" fill="#F1E7D4"/>
<path d="M62.5475 68.8676C59.79 67.3151 59.43 70.7326 59.43 70.7326C59.43 70.7326 59.4625 71.6176 60.25 71.9776C61.0375 72.3376 62.315 72.6176 63.1875 71.3126C64.06 70.0101 63.025 69.1351 62.5475 68.8676ZM61.8 71.5651C61.2625 71.7176 59.63 71.6026 60.5375 69.7901C60.5375 69.7901 61.5775 68.4776 62.6025 69.8776C62.6025 69.8801 63.2975 71.1426 61.8 71.5651Z" fill="#F1E7D4"/>
<path d="M59.15 64.115C56.9075 62.8525 56.615 65.6325 56.615 65.6325C56.615 65.6325 56.6425 66.3525 57.2825 66.645C57.9225 66.94 58.96 67.165 59.67 66.105C60.38 65.045 59.5375 64.335 59.15 64.115ZM58.5425 66.31C58.105 66.4325 56.7775 66.34 57.515 64.8675C57.515 64.8675 58.36 63.8 59.195 64.94C59.195 64.9375 59.76 65.9675 58.5425 66.31Z" fill="#F1E7D4"/>
<path d="M63.5475 82.44C63.545 83.2875 63.195 84.13 62.595 84.735C62.0025 85.3475 61.155 85.7225 60.2825 85.7325C59.415 85.7575 58.5225 85.42 57.8825 84.8C57.2375 84.185 56.845 83.2925 56.8325 82.3825C56.86 81.4725 57.2675 80.5875 57.9225 79.9825C58.575 79.3725 59.4725 79.0525 60.34 79.0925C61.21 79.1175 62.0525 79.5075 62.635 80.13C63.225 80.7425 63.56 81.5925 63.5475 82.44ZM62.62 82.43C62.625 81.8225 62.375 81.225 61.9425 80.8075C61.51 80.39 60.915 80.17 60.3325 80.19C59.7475 80.2125 59.1975 80.475 58.8175 80.8875C58.4325 81.2975 58.235 81.85 58.2525 82.3925C58.2225 82.935 58.4125 83.49 58.79 83.9075C59.1625 84.3275 59.71 84.6 60.295 84.6325C60.8775 84.66 61.475 84.4525 61.915 84.04C62.355 83.63 62.615 83.0375 62.62 82.43Z" fill="#F1E7D4"/>
<path d="M46.1625 56.0675L39.5625 56.6625L40.3675 55.8575C40.5025 58.485 41.075 61.065 42.115 63.44C43.1375 65.8175 44.615 67.9825 46.4225 69.8C50.0325 73.4475 55.06 75.5875 60.155 75.555C65.25 75.5925 70.2825 73.46 73.9 69.8125C75.71 67.995 77.19 65.83 78.2175 63.4525C79.26 61.0775 79.8375 58.4925 79.975 55.8625L80.7475 56.635L74.36 56.1V55.625L80.7475 55.09L81.48 55.03L81.52 55.8625C81.6525 58.6875 81.1975 61.56 80.21 64.25C79.2125 66.9375 77.68 69.4425 75.7025 71.5525C73.7375 73.675 71.3175 75.385 68.655 76.56C65.9875 77.73 63.07 78.33 60.1575 78.3425C57.245 78.3325 54.325 77.735 51.6575 76.5675C48.9925 75.3925 46.57 73.685 44.6025 71.5625C42.62 69.4525 41.085 66.9475 40.085 64.2575C39.0925 61.565 38.635 58.69 38.765 55.8625L38.805 54.99L39.57 55.06L46.17 55.655V56.0675H46.1625Z" fill="#F1E7D4"/>
<path d="M62.8925 60.3249C63.425 59.5674 64.685 58.4599 65.07 57.2699C65.3875 56.5499 64.8075 53.7749 64.8075 53.7749C64.8075 53.7749 62.98 55.2824 62.5875 56.4624C62.135 57.8299 62.8325 60.3524 62.8325 60.3524C62.8325 60.3524 62.86 60.3724 62.8925 60.3249Z" fill="#F1E7D4"/>
<path d="M58.845 56.3425C58.845 56.3425 57.9075 58.195 60.4275 60.5175C60.4275 60.52 61.205 57.695 58.845 56.3425Z" fill="#F1E7D4"/>
<path d="M63.4475 62.0899C63.4475 62.0899 64.555 60.0674 67.6225 60.0674C67.6225 60.0674 66.6525 62.6449 63.4475 62.0899Z" fill="#F1E7D4"/>
<path d="M58.06 61.2799C58.06 61.2799 57.8575 59.9074 55.7225 59.7524C55.7225 59.7524 56.0425 61.4124 58.06 61.2799Z" fill="#F1E7D4"/>
<path d="M64.08 63.7875C62.2325 62.7475 61.99 65.0375 61.99 65.0375C61.99 65.0375 62.0125 65.63 62.54 65.8725C63.0675 66.115 63.9225 66.3 64.5075 65.4275C65.0925 64.555 64.3975 63.9675 64.08 63.7875ZM63.5775 65.595C63.2175 65.6975 62.1225 65.62 62.73 64.405C62.73 64.405 63.4275 63.525 64.115 64.465C64.115 64.4675 64.58 65.315 63.5775 65.595Z" fill="#F1E7D4"/>
<path d="M85.315 28.0649L84.5825 28.0574L80.2325 28.0124C80.075 27.3999 79.82 26.7999 79.4475 26.2649C78.9525 25.5349 78.265 24.9424 77.515 24.5349C76.7625 24.1249 75.9625 23.8849 75.17 23.7274C74.7 23.6274 74.23 23.5774 73.7625 23.5449C73.77 23.3999 73.7825 23.2549 73.7825 23.1099C73.7875 22.6424 73.7625 22.1724 73.6925 21.7024C73.5575 20.7649 73.255 19.8049 72.695 18.9499C72.14 18.0949 71.3075 17.4049 70.3975 16.9824C69.9425 16.7774 69.47 16.6124 69 16.5149C68.75 16.4524 68.5675 16.4274 68.35 16.3824L67.725 16.2599C66.895 16.0999 66.0775 15.9424 65.3075 15.7374C64.54 15.5324 63.815 15.2749 63.2275 14.9099C62.6375 14.5449 62.3025 14.2224 61.705 13.4599C61.2875 12.9249 60.3025 11.2349 60.3025 11.2349C60.3025 11.2349 59.8675 12.0549 58.9275 13.3674C58.5325 13.9174 57.955 14.5299 57.365 14.8899C56.7775 15.2524 56.055 15.5024 55.2875 15.7049C54.5175 15.9074 53.7025 16.0599 52.87 16.2174L52.245 16.3349C52.0275 16.3799 51.845 16.4049 51.595 16.4649C51.12 16.5599 50.645 16.7249 50.1825 16.9299C49.2625 17.3524 48.4175 18.0474 47.85 18.9124C47.2775 19.7749 46.97 20.7449 46.8275 21.6899C46.755 22.1649 46.7275 22.6399 46.73 23.1099C46.73 23.2224 46.74 23.3349 46.745 23.4474C46.305 23.4774 45.86 23.5274 45.415 23.6199C44.6125 23.7749 43.8 24.0149 43.0325 24.4299C42.2675 24.8399 41.56 25.4449 41.05 26.1899C40.6875 26.7049 40.435 27.2799 40.2675 27.8674L35.965 27.8924L35.07 27.8974V28.7849C35.075 33.9299 35.105 39.0774 35.0875 44.2224L35.075 51.5899L35.07 56.1524C35.0525 57.4224 35.1 58.7649 35.2075 60.0849C35.715 65.3799 38.0175 70.4549 41.565 74.3799C45.105 78.3224 49.9075 81.0974 55.09 82.1799L55.75 82.3149C55.76 81.8274 55.85 81.3624 56.005 80.9249L55.38 80.7899C50.4975 79.7449 45.9875 77.1074 42.6725 73.3824C39.35 69.6699 37.215 64.8974 36.76 59.9299C36.665 58.6874 36.6225 57.4549 36.6475 56.1524L36.67 51.5899L36.7175 44.2249C36.7375 39.3799 36.8 34.5349 36.845 29.6874L41.005 29.7124L41.7825 29.7174L41.9175 28.9299C42.025 28.3149 42.235 27.7374 42.58 27.2624C42.9175 26.7849 43.375 26.3924 43.9225 26.1074C44.47 25.8199 45.1025 25.6349 45.76 25.5174C46.415 25.3874 47.11 25.3674 47.805 25.3524L48.95 25.3274L48.765 24.1924C48.7425 24.0599 48.72 23.8474 48.71 23.6674C48.6975 23.4799 48.69 23.2899 48.6925 23.1024C48.695 22.7249 48.7225 22.3499 48.78 21.9874C48.8975 21.2599 49.135 20.5799 49.5125 20.0299C49.8875 19.4774 50.405 19.0624 51.025 18.7799C51.3425 18.6499 51.6675 18.5249 52.025 18.4574C52.185 18.4149 52.4225 18.3774 52.62 18.3399L53.2425 18.2224C54.075 18.0649 54.9275 17.9099 55.8 17.6824C56.6675 17.4524 57.57 17.1599 58.4325 16.6349C59.1725 16.1949 59.8325 15.5374 60.2975 14.7824C60.7625 15.5299 61.44 16.1774 62.175 16.6124C63.035 17.1324 63.9375 17.4224 64.805 17.6474C65.675 17.8699 66.5275 18.0224 67.3625 18.1749L67.985 18.2899C68.1825 18.3274 68.42 18.3649 68.5825 18.4049C68.945 18.4699 69.275 18.5949 69.5975 18.7249C70.2275 19.0074 70.76 19.4274 71.145 19.9874C71.5325 20.5474 71.7775 21.2374 71.9 21.9724C71.9625 22.3399 71.9925 22.7199 71.995 23.1024C71.9975 23.2924 71.9925 23.4849 71.98 23.6749C71.97 23.8574 71.9475 24.0699 71.925 24.2099L71.765 25.2374L72.79 25.2524C73.4875 25.2624 74.19 25.2799 74.8525 25.4074C75.5175 25.5249 76.1625 25.7049 76.725 25.9999C77.29 26.2899 77.765 26.6924 78.12 27.1874C78.4825 27.6774 78.7025 28.2724 78.8175 28.9074L78.9375 29.5774L79.5925 29.5699L83.8575 29.5249C83.8975 34.4499 83.96 39.3749 83.9725 44.2999L84.0025 51.7049L84.0175 56.2874C84.0175 56.9324 84.035 57.5874 83.995 58.2099L83.955 59.1549C83.9425 59.4699 83.935 59.7849 83.8825 60.0974C83.655 62.6099 82.9925 65.0749 81.97 67.3749C80.95 69.6749 79.565 71.8099 77.875 73.6649C74.5025 77.3974 69.8675 79.9024 64.9425 80.7824L64.3625 80.8849C64.5325 81.3524 64.6325 81.8524 64.635 82.3774L65.215 82.2649C67.83 81.7574 70.3625 80.8324 72.675 79.5249C74.99 78.2174 77.0825 76.5249 78.86 74.5574C82.42 70.6149 84.6525 65.5074 85.15 60.2274C85.205 59.8999 85.215 59.5674 85.2275 59.2374L85.27 58.2449C85.3125 57.5774 85.295 56.9374 85.2975 56.2899L85.29 51.7074L85.2775 44.3024C85.2625 39.1299 85.3025 33.9599 85.3125 28.7874L85.315 28.0649Z" fill="#F1E7D4"/>
<path d="M87.72 24.81C85.9725 24.765 84.935 24.7325 83.19 24.7025C83.0175 24.1125 82.7475 23.565 82.415 23.0675C81.9625 22.3975 81.3875 21.815 80.72 21.355C80.055 20.895 79.3025 20.56 78.52 20.3675C78.04 20.2475 77.55 20.1875 77.06 20.165C77.035 19.9125 77.0025 19.6625 76.96 19.415C76.87 18.88 76.7475 18.35 76.5825 17.83C76.2525 16.79 75.7625 15.7675 75.055 14.8725C74.7025 14.425 74.3 14.0125 73.855 13.6475C73.41 13.2825 72.9125 12.9825 72.4 12.73C71.8875 12.47 71.345 12.2975 70.8025 12.1475C70.23 12.01 69.7675 11.9325 69.275 11.835C67.3425 11.4475 65.4 11.0675 63.9775 10.1325C63.27 9.6675 62.435 9.0025 61.9225 8.3075C61.2275 7.365 60.2725 4.5 60.2725 4.5C60.2725 4.5 59.3175 7.365 58.6225 8.3075C58.11 9.0025 57.275 9.6675 56.5675 10.1325C55.1475 11.0675 53.2025 11.4475 51.27 11.835C50.775 11.9325 50.3125 12.01 49.7425 12.1475C49.2 12.2975 48.6575 12.47 48.145 12.73C47.6325 12.9825 47.135 13.2825 46.69 13.6475C46.245 14.0125 45.8425 14.425 45.49 14.8725C44.7825 15.7675 44.2925 16.7875 43.9625 17.83C43.7975 18.3525 43.6725 18.8825 43.585 19.415C43.5425 19.6625 43.5125 19.915 43.485 20.165C42.995 20.1875 42.505 20.2475 42.025 20.3675C41.2425 20.56 40.49 20.895 39.825 21.355C39.16 21.815 38.585 22.3975 38.13 23.0675C37.7975 23.565 37.5275 24.11 37.355 24.7025C35.61 24.7325 34.5725 24.765 32.8275 24.81H32.825L32.165 24.815L32.1675 25.465L32.295 52.755L32.7175 57.59H32.885L33.1975 52.755L33.475 26.1375C35.2125 26.18 36.2375 26.2125 37.975 26.2425L38.6075 26.2525L38.74 25.59C38.8525 25.0375 39.11 24.485 39.465 24C39.82 23.5125 40.27 23.0925 40.775 22.765C41.7875 22.095 43.025 21.85 44.255 21.9625L45.205 22.05L45.2325 21.06C45.2375 20.8825 45.2575 20.63 45.285 20.4125C45.3125 20.185 45.3475 19.96 45.3925 19.7325C45.48 19.2825 45.5925 18.8375 45.7425 18.4075C46.0375 17.55 46.4525 16.7475 47.0075 16.0825C47.56 15.4175 48.235 14.885 49.0125 14.5225C49.395 14.33 49.815 14.205 50.235 14.0925C50.6375 14 51.1625 13.91 51.6525 13.8225C52.645 13.6375 53.6525 13.445 54.675 13.165C55.6925 12.8825 56.745 12.505 57.7175 11.8775C58.6925 11.2575 59.53 10.365 60.1025 9.3825C60.14 9.32 60.175 9.255 60.21 9.19L60.28 9.055L60.35 9.19C60.385 9.255 60.42 9.3175 60.4575 9.3825C61.03 10.365 61.865 11.2575 62.8425 11.8775C63.815 12.505 64.8675 12.885 65.885 13.165C66.9075 13.445 67.9125 13.6375 68.9075 13.8225C69.3975 13.9125 69.92 14 70.325 14.0925C70.7475 14.205 71.165 14.33 71.5475 14.5225C72.3225 14.885 73 15.4175 73.5525 16.0825C74.105 16.7475 74.5225 17.5475 74.8175 18.4075C74.965 18.8375 75.08 19.2825 75.1675 19.7325C75.2125 19.9575 75.2475 20.185 75.275 20.4125C75.3025 20.63 75.3225 20.8825 75.3275 21.06L75.355 22.05L76.305 21.9625C77.5325 21.85 78.7725 22.095 79.785 22.765C80.29 23.0925 80.7425 23.5125 81.095 24C81.45 24.485 81.7075 25.0375 81.82 25.59L81.9525 26.2525L82.585 26.2425C84.3225 26.2125 85.3475 26.18 87.085 26.1375L87.3625 52.755L87.675 57.59H87.8425L88.265 52.755L88.3925 25.465L88.395 24.815L87.72 24.81Z" fill="#F1E7D4"/>
<path d="M61.8 42.5951C61.755 42.5951 61.7075 42.5876 61.665 42.5726C61.5475 42.5301 61.455 42.4376 61.415 42.3201C61.235 41.7926 61.195 41.3001 61.25 40.8476C60.985 41.3901 60.6925 41.6201 60.63 41.6651C60.535 41.7326 60.4175 41.7576 60.3025 41.7326C60.19 41.7076 60.0925 41.6351 60.035 41.5326C59.2 40.0401 56.54 35.0651 57.405 33.7501C57.7575 33.2151 58.8475 32.6776 60.07 32.2126L59.2925 32.0551C58.8525 32.1426 56.8425 32.5051 54.3525 32.3051C53.2375 32.2151 52.4525 31.8626 52.0125 31.2576C51.5075 30.5601 51.6825 29.8001 51.69 29.7701C51.73 29.6026 51.8725 29.4776 52.045 29.4601L58.215 28.8101C58.245 28.8076 58.275 28.8076 58.305 28.8101L58.94 28.8851L58.2375 28.3626C57.7 28.3926 55.93 28.4051 53.52 27.5001C52.305 27.0451 51.54 26.4351 51.245 25.6901C50.9675 24.9926 51.2175 24.4501 51.245 24.3901C51.325 24.2276 51.4975 24.1351 51.68 24.1676L60.145 25.5926C60.195 25.6001 60.2425 25.6176 60.2875 25.6451L60.795 25.9501C60.5625 25.6126 60.335 25.2376 60.115 24.8226C59.385 23.4426 59.1875 22.3826 59.525 21.6726C59.8 21.0951 60.31 20.9801 60.3675 20.9676C60.5125 20.9376 60.665 20.9926 60.76 21.1076C63.8875 24.8626 65.905 26.6001 66.095 26.7601L68.3025 28.2476C68.49 28.3726 68.54 28.6276 68.4125 28.8151C68.2875 29.0026 68.0325 29.0501 67.8475 28.9251L65.6225 27.4251C65.6125 27.4176 65.6 27.4101 65.59 27.4001C65.5075 27.3301 63.55 25.6976 60.3525 21.8901C60.3175 21.9276 60.2825 21.9776 60.255 22.0426C60.1375 22.3076 60.06 22.9726 60.8375 24.4426C61.68 26.0351 62.68 26.9801 63.38 27.4976L64.32 28.0601C64.5025 28.1701 64.57 28.4001 64.4775 28.5901C64.3825 28.7801 64.16 28.8676 63.9625 28.7901C63.9225 28.7751 63.495 28.6001 62.89 28.1551L59.935 26.3876L51.935 25.0401C51.9375 25.1451 51.955 25.2726 52.015 25.4126C52.1625 25.7651 52.595 26.2826 53.81 26.7376C56.46 27.7326 58.2975 27.5401 58.315 27.5401C58.415 27.5301 58.5225 27.5576 58.605 27.6176L60.5675 29.0776L63.7975 29.4601C64.02 29.4876 64.18 29.6901 64.155 29.9126C64.1275 30.1351 63.9275 30.2951 63.7025 30.2701H63.7L60.3675 29.8776C60.355 29.8751 60.345 29.8751 60.3325 29.8726L58.2575 29.6276L52.4775 30.2351C52.4925 30.3926 52.5425 30.5951 52.685 30.7901C52.975 31.1826 53.575 31.4251 54.4225 31.4926C57.0625 31.7076 59.1875 31.2476 59.2075 31.2426C59.2625 31.2301 59.32 31.2301 59.3775 31.2401L61.31 31.6326L64.32 30.9201C64.54 30.8676 64.7575 31.0026 64.81 31.2201C64.8625 31.4376 64.73 31.6576 64.5125 31.7126C62.305 32.2601 58.61 33.4201 58.095 34.2026C57.725 34.7651 58.98 37.8551 60.4625 40.6001C60.7125 40.1476 61.005 39.2626 60.875 37.7151L60.195 35.7351C60.1225 35.5251 60.2325 35.2951 60.4425 35.2176L64.1625 33.8776C64.8775 33.6501 66.3325 33.6151 66.8275 35.0851C67.315 36.5326 66.44 37.3551 65.9075 37.5851L63.49 38.8526C63.435 38.8876 61.845 39.8776 62.075 41.5476C63.1125 40.9251 65.445 39.5951 66.54 39.5776C67.5025 39.5626 67.7825 39.4951 67.83 39.4826C67.8375 39.4801 67.845 39.4776 67.8525 39.4726L74.455 37.0126C74.665 36.9351 74.9025 37.0426 74.98 37.2526C75.06 37.4626 74.9525 37.7001 74.74 37.7776L68.1625 40.2301C68.045 40.2851 67.72 40.3751 66.5525 40.3951C65.7075 40.4076 63.33 41.7151 62.03 42.5351C61.9525 42.5726 61.875 42.5951 61.8 42.5951ZM61.085 35.8476L61.6525 37.4951C61.6625 37.5251 61.67 37.5576 61.6725 37.5926C61.75 38.4676 61.7075 39.1676 61.605 39.7226C61.9975 38.9676 62.62 38.4176 63.08 38.1401L65.545 36.8476C65.7075 36.7726 66.395 36.3926 66.0425 35.3426C65.6775 34.2576 64.465 34.6326 64.4125 34.6476L61.085 35.8476Z" fill="#F1E7D4"/>
</g>
<defs>
<clipPath id="clip0_109_2178">
<rect width="93.9675" height="110.96" fill="white" transform="translate(13 4.5)"/>
</clipPath>
</defs>
</svg>
